<?xml version="1.0" encoding="UTF-8" standalone="no"?>
<svg version="1.0" width="238.000000pt" height="238.000000pt" viewBox="0 0 238.000000 238.000000"
     preserveAspectRatio="xMidYMid meet" xmlns="http://www.w3.org/2000/svg">
    <g transform="translate(0.000000,238.000000) scale(0.100000,-0.100000)" fill="gray" stroke="none">
        <path fill="black"
              d="m 1231,2130 c 34,-82 97,-198 140,-260 21,-29 37,-55 36,-57 -2,-1 -29,5 -61,13 -32,8 -61,12 -65,9 -7,-7 -9,-406 -3,-443 4,-21 18,-11 128,99 68,68 124,126 124,130 0,3 -18,15 -40,28 -22,12 -40,26 -40,31 0,4 21,11 48,15 26,3 99,24 162,46 63,22 123,43 133,46 18,5 18,4 4,-23 -20,-41 -66,-182 -86,-267 l -17,-72 -30,48 -30,48 -120,-121 c -65,-66 -120,-125 -122,-130 -2,-6 81,-10 227,-10 261,0 242,-8 217,87 l -14,51 67,-45 c 69,-47 298,-163 322,-163 8,0 -41,-27 -107,-59 -67,-32 -154,-80 -194,-105 -40,-26 -75,-45 -77,-42 -3,3 0,25 6,50 6,25 11,50 11,55 0,8 -77,11 -237,11 h -238 l 125,-125 c 69,-69 127,-125 131,-125 3,0 19,20 35,45 l 29,46 25,-103 c 27,-107 33,-127 69,-215 l 21,-53 -53,21 c -45,19 -197,64 -292,87 l -29,8 47,27 c 26,15 47,31 47,35 0,13 -239,246 -246,240 -9,-10 -16,-344 -9,-407 6,-51 8,-53 33,-48 15,3 45,9 67,12 l 40,8 -21,-24 c -33,-38 -91,-139 -148,-261 -47,-98 -54,-109 -61,-88 -16,55 -128,268 -166,319 l -41,54 34,-7 c 18,-4 50,-9 71,-13 l 37,-6 v 233 c 0,156 -3,231 -10,228 -6,-2 -65,-57 -131,-123 L 860,746 910,714 960,683 897,670 C 863,664 782,640 717,618 651,596 597,580 595,582 c -2,2 10,42 27,88 17,47 41,128 53,180 l 22,95 29,-47 c 16,-27 31,-48 34,-48 3,0 61,56 130,125 l 125,125 H 777 c -130,0 -237,-3 -237,-7 0,-5 7,-33 15,-63 8,-30 13,-55 12,-56 -1,-2 -29,16 -62,38 -33,22 -120,70 -194,106 l -134,66 34,15 c 106,47 242,119 295,156 l 61,42 -8,-36 c -4,-20 -10,-51 -14,-68 l -7,-33 h 236 c 130,0 236,3 236,7 0,11 -233,243 -245,243 -5,0 -21,-18 -35,-40 -14,-22 -28,-40 -31,-40 -4,0 -10,21 -14,46 -8,53 -44,177 -74,253 -12,29 -20,55 -18,57 2,2 38,-10 81,-26 88,-34 218,-70 253,-70 33,0 28,-12 -17,-40 -22,-14 -40,-29 -40,-35 0,-11 231,-245 242,-245 5,0 8,106 8,235 0,129 -3,235 -7,235 -5,0 -24,-4 -43,-9 -96,-25 -93,-29 -35,58 28,44 76,132 105,195 30,64 57,112 61,108 4,-4 17,-32 30,-62 z"/>
    </g>
</svg>
