<?xml version="1.0" encoding="UTF-8" standalone="no"?>
<svg version="1.0" width="238.000000pt" height="238.000000pt" viewBox="0 0 238.000000 238.000000"
     preserveAspectRatio="xMidYMid meet" xmlns="http://www.w3.org/2000/svg">
    <g transform="translate(0.000000,238.000000) scale(0.100000,-0.100000)" stroke="none">
        <path fill="red"
              d="m 1226,2262 c 6,-4 24,-38 39,-77 39,-100 133,-270 177,-320 41,-47 47,-74 21,-100 -16,-17 -47,-16 -110,1 l -23,6 v -143 -143 l 60,59 61,60 -23,15 c -45,29 -68,58 -61,77 11,33 25,43 57,43 48,0 181,35 284,74 111,43 138,45 153,12 9,-19 5,-39 -24,-112 -44,-109 -77,-227 -81,-290 -3,-31 -10,-52 -22,-61 -36,-26 -59,-14 -101,53 -10,18 -16,15 -67,-36 -31,-30 -56,-57 -56,-61 0,-3 62,-6 138,-5 116,1 136,3 134,16 -2,8 -6,39 -9,67 -5,50 -4,53 21,63 30,11 50,4 80,-29 34,-38 211,-133 368,-199 69,-29 52,-84 -37,-117 -120,-45 -280,-134 -339,-189 -68,-62 -116,-11 -87,92 l 10,32 h -142 -141 l 59,-60 59,-59 23,39 c 19,32 30,40 52,40 37,0 48,-15 56,-75 10,-73 42,-188 82,-289 36,-92 36,-107 1,-130 -12,-7 -37,-1 -96,22 -112,44 -247,82 -294,82 -57,0 -78,14 -78,54 0,29 6,37 40,58 l 40,23 -60,60 -60,59 V 731 c 0,-132 1,-143 18,-136 35,15 102,18 117,5 25,-20 17,-47 -29,-107 -47,-61 -151,-254 -182,-337 -19,-52 -50,-75 -79,-59 -9,6 -34,51 -55,100 -50,121 -126,256 -174,310 -34,39 -38,48 -30,71 9,24 15,27 54,27 25,-1 56,-3 70,-5 l 25,-5 2,138 c 2,75 -1,137 -5,137 -4,0 -32,-25 -62,-56 -51,-52 -54,-57 -36,-67 92,-55 85,-114 -14,-124 -65,-6 -226,-53 -306,-88 -70,-31 -89,-31 -109,-1 -15,22 -14,28 8,83 41,96 86,249 93,310 8,69 17,83 55,83 23,0 34,-9 55,-41 l 26,-42 59,59 60,59 -137,3 c -75,1 -139,0 -142,-2 -2,-3 1,-26 7,-52 7,-25 9,-54 6,-65 -7,-22 -52,-36 -70,-23 -7,5 -34,26 -61,46 -52,40 -247,143 -327,173 -71,27 -79,85 -14,108 80,29 308,151 356,192 40,34 59,44 75,39 29,-8 48,-35 42,-59 -2,-11 -8,-37 -11,-57 l -7,-36 h 136 c 75,0 136,3 136,7 0,4 -24,31 -54,60 l -55,54 -21,-36 c -23,-40 -62,-57 -89,-40 -11,7 -18,32 -22,74 -6,59 -65,255 -102,340 -14,32 -14,38 -1,57 21,30 42,28 143,-12 102,-41 231,-76 280,-76 41,0 71,-24 71,-56 0,-17 -12,-31 -41,-50 l -42,-26 54,-54 c 29,-30 56,-54 60,-54 3,0 7,61 8,135 2,151 6,144 -73,123 -40,-11 -47,-10 -66,7 -30,27 -25,48 24,104 44,52 137,221 176,321 12,30 26,61 32,67 11,14 47,17 64,5 z"/>
    </g>
    <g transform="translate(0.000000,238.000000) scale(0.100000,-0.100000)" stroke="none">
        <path fill="black"
              d="M1169 2223 c-48 -126 -142 -305 -196 -371 -22 -26 -33 -49 -29 -59 6 -16 22 -15 114 3 l32 7 0 -189 0 -189 -90 90 c-49 49 -90 92 -90 95 0 3 20 18 45 33 28 18 45 36 45 48 0 10 -3 19 -7 20 -104 10 -217 38 -331 84 -72 29 -88 33 -99 22 -12 -11 -9 -26 16 -88 39 -97 78 -234 82 -284 6 -86 37 -92 80 -15 13 22 25 40 29 40 3 0 46 -40 95 -90 l90 -90 -192 0 -191 0 14 53 c27 100 10 119 -58 65 -24 -19 -72 -52 -107 -73 -68 -41 -248 -125 -267 -125 -15 0 -27 -31 -17 -41 4 -4 42 -22 83 -39 106 -45 251 -126 306 -172 26 -21 52 -37 58 -35 11 4 12 37 5 110 l-4 38 155 1 c85 0 166 0 180 -1 22 -1 14 -11 -65 -91 l-89 -89 -30 47 c-20 30 -39 47 -51 47 -17 0 -21 -9 -27 -67 -3 -38 -26 -124 -53 -200 -25 -73 -48 -141 -52 -150 -10 -33 26 -30 135 10 59 22 148 48 197 58 50 9 96 18 103 20 25 7 10 36 -33 62 -24 15 -45 29 -45 32 0 3 41 46 90 95 l90 90 0 -188 c0 -175 -1 -188 -17 -183 -48 14 -107 24 -119 19 -23 -9 -16 -31 29 -86 40 -49 157 -269 184 -345 6 -17 18 -32 26 -32 10 0 44 60 94 163 47 96 99 186 127 221 42 51 46 60 33 73 -11 11 -23 12 -53 5 -22 -6 -51 -13 -66 -16 l-28 -6 0 185 c0 102 3 185 8 185 4 0 47 -40 95 -89 l89 -88 -52 -32 c-72 -44 -65 -61 31 -77 84 -15 217 -55 294 -89 84 -37 92 -21 46 92 -38 91 -69 205 -79 279 -10 79 -30 83 -73 14 l-32 -52 -88 88 c-48 48 -86 90 -84 93 4 7 354 6 360 -1 2 -2 -2 -26 -10 -53 -30 -99 -11 -113 71 -49 49 38 265 154 354 189 43 17 31 44 -30 69 -125 51 -249 121 -376 211 -9 6 -17 6 -25 -2 -9 -9 -8 -27 4 -75 9 -34 15 -64 13 -65 -2 -2 -85 -2 -185 -1 l-181 3 88 88 89 89 30 -44 c17 -26 36 -43 48 -43 17 0 21 10 27 61 7 56 51 204 94 316 28 72 15 77 -93 35 -101 -40 -236 -77 -281 -77 -77 0 -82 -33 -12 -75 l50 -30 -95 -95 -95 -95 0 188 c0 138 3 187 12 187 6 0 38 -5 70 -12 83 -17 89 -3 29 76 -45 59 -150 256 -183 344 -19 49 -43 55 -59 15z"/>
    </g>
    <g transform="translate(0.000000,238.000000) scale(0.100000,-0.100000)" fill="gray" stroke="none">
        <path fill="yellow"
              d="m 1231,2130 c 34,-82 97,-198 140,-260 21,-29 37,-55 36,-57 -2,-1 -29,5 -61,13 -32,8 -61,12 -65,9 -7,-7 -9,-406 -3,-443 4,-21 18,-11 128,99 68,68 124,126 124,130 0,3 -18,15 -40,28 -22,12 -40,26 -40,31 0,4 21,11 48,15 26,3 99,24 162,46 63,22 123,43 133,46 18,5 18,4 4,-23 -20,-41 -66,-182 -86,-267 l -17,-72 -30,48 -30,48 -120,-121 c -65,-66 -120,-125 -122,-130 -2,-6 81,-10 227,-10 261,0 242,-8 217,87 l -14,51 67,-45 c 69,-47 298,-163 322,-163 8,0 -41,-27 -107,-59 -67,-32 -154,-80 -194,-105 -40,-26 -75,-45 -77,-42 -3,3 0,25 6,50 6,25 11,50 11,55 0,8 -77,11 -237,11 h -238 l 125,-125 c 69,-69 127,-125 131,-125 3,0 19,20 35,45 l 29,46 25,-103 c 27,-107 33,-127 69,-215 l 21,-53 -53,21 c -45,19 -197,64 -292,87 l -29,8 47,27 c 26,15 47,31 47,35 0,13 -239,246 -246,240 -9,-10 -16,-344 -9,-407 6,-51 8,-53 33,-48 15,3 45,9 67,12 l 40,8 -21,-24 c -33,-38 -91,-139 -148,-261 -47,-98 -54,-109 -61,-88 -16,55 -128,268 -166,319 l -41,54 34,-7 c 18,-4 50,-9 71,-13 l 37,-6 v 233 c 0,156 -3,231 -10,228 -6,-2 -65,-57 -131,-123 L 860,746 910,714 960,683 897,670 C 863,664 782,640 717,618 651,596 597,580 595,582 c -2,2 10,42 27,88 17,47 41,128 53,180 l 22,95 29,-47 c 16,-27 31,-48 34,-48 3,0 61,56 130,125 l 125,125 H 777 c -130,0 -237,-3 -237,-7 0,-5 7,-33 15,-63 8,-30 13,-55 12,-56 -1,-2 -29,16 -62,38 -33,22 -120,70 -194,106 l -134,66 34,15 c 106,47 242,119 295,156 l 61,42 -8,-36 c -4,-20 -10,-51 -14,-68 l -7,-33 h 236 c 130,0 236,3 236,7 0,11 -233,243 -245,243 -5,0 -21,-18 -35,-40 -14,-22 -28,-40 -31,-40 -4,0 -10,21 -14,46 -8,53 -44,177 -74,253 -12,29 -20,55 -18,57 2,2 38,-10 81,-26 88,-34 218,-70 253,-70 33,0 28,-12 -17,-40 -22,-14 -40,-29 -40,-35 0,-11 231,-245 242,-245 5,0 8,106 8,235 0,129 -3,235 -7,235 -5,0 -24,-4 -43,-9 -96,-25 -93,-29 -35,58 28,44 76,132 105,195 30,64 57,112 61,108 4,-4 17,-32 30,-62 z"/>
    </g>
</svg>
