<?xml version="1.0" encoding="UTF-8" standalone="no"?>
<svg version="1.0" width="238.000000pt" height="238.000000pt" viewBox="0 0 238.000000 238.000000"
     preserveAspectRatio="xMidYMid meet" xmlns="http://www.w3.org/2000/svg">
    <g transform="translate(0.000000,238.000000) scale(0.100000,-0.100000)" stroke="none">
        <path fill="black"
              d="m 1226,2262 c 6,-4 24,-38 39,-77 39,-100 133,-270 177,-320 41,-47 47,-74 21,-100 -16,-17 -47,-16 -110,1 l -23,6 v -143 -143 l 60,59 61,60 -23,15 c -45,29 -68,58 -61,77 11,33 25,43 57,43 48,0 181,35 284,74 111,43 138,45 153,12 9,-19 5,-39 -24,-112 -44,-109 -77,-227 -81,-290 -3,-31 -10,-52 -22,-61 -36,-26 -59,-14 -101,53 -10,18 -16,15 -67,-36 -31,-30 -56,-57 -56,-61 0,-3 62,-6 138,-5 116,1 136,3 134,16 -2,8 -6,39 -9,67 -5,50 -4,53 21,63 30,11 50,4 80,-29 34,-38 211,-133 368,-199 69,-29 52,-84 -37,-117 -120,-45 -280,-134 -339,-189 -68,-62 -116,-11 -87,92 l 10,32 h -142 -141 l 59,-60 59,-59 23,39 c 19,32 30,40 52,40 37,0 48,-15 56,-75 10,-73 42,-188 82,-289 36,-92 36,-107 1,-130 -12,-7 -37,-1 -96,22 -112,44 -247,82 -294,82 -57,0 -78,14 -78,54 0,29 6,37 40,58 l 40,23 -60,60 -60,59 V 731 c 0,-132 1,-143 18,-136 35,15 102,18 117,5 25,-20 17,-47 -29,-107 -47,-61 -151,-254 -182,-337 -19,-52 -50,-75 -79,-59 -9,6 -34,51 -55,100 -50,121 -126,256 -174,310 -34,39 -38,48 -30,71 9,24 15,27 54,27 25,-1 56,-3 70,-5 l 25,-5 2,138 c 2,75 -1,137 -5,137 -4,0 -32,-25 -62,-56 -51,-52 -54,-57 -36,-67 92,-55 85,-114 -14,-124 -65,-6 -226,-53 -306,-88 -70,-31 -89,-31 -109,-1 -15,22 -14,28 8,83 41,96 86,249 93,310 8,69 17,83 55,83 23,0 34,-9 55,-41 l 26,-42 59,59 60,59 -137,3 c -75,1 -139,0 -142,-2 -2,-3 1,-26 7,-52 7,-25 9,-54 6,-65 -7,-22 -52,-36 -70,-23 -7,5 -34,26 -61,46 -52,40 -247,143 -327,173 -71,27 -79,85 -14,108 80,29 308,151 356,192 40,34 59,44 75,39 29,-8 48,-35 42,-59 -2,-11 -8,-37 -11,-57 l -7,-36 h 136 c 75,0 136,3 136,7 0,4 -24,31 -54,60 l -55,54 -21,-36 c -23,-40 -62,-57 -89,-40 -11,7 -18,32 -22,74 -6,59 -65,255 -102,340 -14,32 -14,38 -1,57 21,30 42,28 143,-12 102,-41 231,-76 280,-76 41,0 71,-24 71,-56 0,-17 -12,-31 -41,-50 l -42,-26 54,-54 c 29,-30 56,-54 60,-54 3,0 7,61 8,135 2,151 6,144 -73,123 -40,-11 -47,-10 -66,7 -30,27 -25,48 24,104 44,52 137,221 176,321 12,30 26,61 32,67 11,14 47,17 64,5 z"/>
    </g>
</svg>
