<?xml version="1.0" encoding="UTF-8" standalone="no"?>
<svg version="1.0" width="238.000000pt" height="238.000000pt" viewBox="0 0 238.000000 238.000000"
     preserveAspectRatio="xMidYMid meet" xmlns="http://www.w3.org/2000/svg">
    <g transform="translate(0.000000,238.000000) scale(0.100000,-0.100000)" stroke="none">
        <path fill="black"
              d="M1169 2223 c-48 -126 -142 -305 -196 -371 -22 -26 -33 -49 -29 -59 6 -16 22 -15 114 3 l32 7 0 -189 0 -189 -90 90 c-49 49 -90 92 -90 95 0 3 20 18 45 33 28 18 45 36 45 48 0 10 -3 19 -7 20 -104 10 -217 38 -331 84 -72 29 -88 33 -99 22 -12 -11 -9 -26 16 -88 39 -97 78 -234 82 -284 6 -86 37 -92 80 -15 13 22 25 40 29 40 3 0 46 -40 95 -90 l90 -90 -192 0 -191 0 14 53 c27 100 10 119 -58 65 -24 -19 -72 -52 -107 -73 -68 -41 -248 -125 -267 -125 -15 0 -27 -31 -17 -41 4 -4 42 -22 83 -39 106 -45 251 -126 306 -172 26 -21 52 -37 58 -35 11 4 12 37 5 110 l-4 38 155 1 c85 0 166 0 180 -1 22 -1 14 -11 -65 -91 l-89 -89 -30 47 c-20 30 -39 47 -51 47 -17 0 -21 -9 -27 -67 -3 -38 -26 -124 -53 -200 -25 -73 -48 -141 -52 -150 -10 -33 26 -30 135 10 59 22 148 48 197 58 50 9 96 18 103 20 25 7 10 36 -33 62 -24 15 -45 29 -45 32 0 3 41 46 90 95 l90 90 0 -188 c0 -175 -1 -188 -17 -183 -48 14 -107 24 -119 19 -23 -9 -16 -31 29 -86 40 -49 157 -269 184 -345 6 -17 18 -32 26 -32 10 0 44 60 94 163 47 96 99 186 127 221 42 51 46 60 33 73 -11 11 -23 12 -53 5 -22 -6 -51 -13 -66 -16 l-28 -6 0 185 c0 102 3 185 8 185 4 0 47 -40 95 -89 l89 -88 -52 -32 c-72 -44 -65 -61 31 -77 84 -15 217 -55 294 -89 84 -37 92 -21 46 92 -38 91 -69 205 -79 279 -10 79 -30 83 -73 14 l-32 -52 -88 88 c-48 48 -86 90 -84 93 4 7 354 6 360 -1 2 -2 -2 -26 -10 -53 -30 -99 -11 -113 71 -49 49 38 265 154 354 189 43 17 31 44 -30 69 -125 51 -249 121 -376 211 -9 6 -17 6 -25 -2 -9 -9 -8 -27 4 -75 9 -34 15 -64 13 -65 -2 -2 -85 -2 -185 -1 l-181 3 88 88 89 89 30 -44 c17 -26 36 -43 48 -43 17 0 21 10 27 61 7 56 51 204 94 316 28 72 15 77 -93 35 -101 -40 -236 -77 -281 -77 -77 0 -82 -33 -12 -75 l50 -30 -95 -95 -95 -95 0 188 c0 138 3 187 12 187 6 0 38 -5 70 -12 83 -17 89 -3 29 76 -45 59 -150 256 -183 344 -19 49 -43 55 -59 15z"/>
    </g>
</svg>
